<mxfile host="app.diagrams.net" agent="Mozilla/5.0 (Windows NT 10.0; Win64; x64) AppleWebKit/537.36 (KHTML, like Gecko) Chrome/137.0.0.0 Safari/537.36" version="27.1.6">
  <diagram name="Seite-1" id="kGmOo0hnh4154Euxvoii">
    <mxGraphModel dx="3415" dy="2929" grid="1" gridSize="10" guides="1" tooltips="1" connect="1" arrows="1" fold="1" page="1" pageScale="1" pageWidth="827" pageHeight="1169" math="0" shadow="0">
      <root>
        <mxCell id="0" />
        <mxCell id="1" parent="0" />
        <mxCell id="Yuj8acGgwzioiZGai9h4-16" value="" style="verticalLabelPosition=bottom;verticalAlign=top;html=1;shape=mxgraph.basic.rect;fillColor2=none;strokeWidth=1;size=20;indent=5;movable=1;resizable=1;rotatable=1;deletable=1;editable=1;locked=0;connectable=1;" parent="1" vertex="1">
          <mxGeometry x="-180" y="1130" width="1130" height="1660" as="geometry" />
        </mxCell>
        <mxCell id="UGOC6KP_R0XuHX1Id-cU-4" value="" style="shape=image;verticalLabelPosition=bottom;labelBackgroundColor=default;verticalAlign=top;aspect=fixed;imageAspect=0;image=https://cdn-images.visual-paradigm.com/handbooks/agile-handbook/wireframe/02-newspaper-site-wireframe-example.png;" parent="1" vertex="1">
          <mxGeometry x="1544.13" y="-440" width="505.82" height="380" as="geometry" />
        </mxCell>
        <mxCell id="UGOC6KP_R0XuHX1Id-cU-19" value="" style="verticalLabelPosition=bottom;verticalAlign=top;html=1;shape=mxgraph.basic.rect;fillColor2=none;strokeWidth=1;size=20;indent=5;" parent="1" vertex="1">
          <mxGeometry x="2114.13" y="-450" width="560" height="610" as="geometry" />
        </mxCell>
        <mxCell id="UGOC6KP_R0XuHX1Id-cU-24" value="" style="verticalLabelPosition=bottom;verticalAlign=top;html=1;shape=mxgraph.basic.rect;fillColor2=none;strokeWidth=1;size=0;indent=0;fillColor=#CFCFCF;strokeColor=#23445d;" parent="1" vertex="1">
          <mxGeometry x="2114.13" y="-450" width="140" height="610" as="geometry" />
        </mxCell>
        <mxCell id="UGOC6KP_R0XuHX1Id-cU-30" value="" style="shape=image;verticalLabelPosition=bottom;labelBackgroundColor=default;verticalAlign=top;aspect=fixed;imageAspect=0;image=https://cdn.prod.website-files.com/64fa82cbdeed167ebaefef84/64fa868c41d7a2600b45a47c_606de887c67c16e1a860bf31_5GXNnjGoajCOnoleOrYm8CfYNnTr5vVDUiCh0xlb2kn6ryQuFpzS6ZWDexQ586QgxG07ua9CSVHce46MwclXOwq4nKh89-OoxQD5ZboBCZI_0KFdD1m58SLrN_dBJrlWPEWwsHTj.png;" parent="1" vertex="1">
          <mxGeometry x="1090" y="-540" width="454.13" height="630" as="geometry" />
        </mxCell>
        <mxCell id="UGOC6KP_R0XuHX1Id-cU-51" value="" style="group" parent="1" vertex="1" connectable="0">
          <mxGeometry x="1964.13" y="-880" width="330" height="360" as="geometry" />
        </mxCell>
        <mxCell id="UGOC6KP_R0XuHX1Id-cU-31" value="" style="rounded=0;whiteSpace=wrap;html=1;" parent="UGOC6KP_R0XuHX1Id-cU-51" vertex="1">
          <mxGeometry width="330" height="360" as="geometry" />
        </mxCell>
        <mxCell id="UGOC6KP_R0XuHX1Id-cU-41" value="" style="endArrow=none;html=1;rounded=0;entryX=1;entryY=0;entryDx=0;entryDy=0;exitX=0;exitY=1;exitDx=0;exitDy=0;" parent="UGOC6KP_R0XuHX1Id-cU-51" source="UGOC6KP_R0XuHX1Id-cU-31" target="UGOC6KP_R0XuHX1Id-cU-31" edge="1">
          <mxGeometry width="50" height="50" relative="1" as="geometry">
            <mxPoint x="50" y="150" as="sourcePoint" />
            <mxPoint x="100" y="100" as="targetPoint" />
          </mxGeometry>
        </mxCell>
        <mxCell id="UGOC6KP_R0XuHX1Id-cU-42" value="" style="endArrow=none;html=1;rounded=0;entryX=0;entryY=0;entryDx=0;entryDy=0;exitX=1;exitY=1;exitDx=0;exitDy=0;" parent="UGOC6KP_R0XuHX1Id-cU-51" source="UGOC6KP_R0XuHX1Id-cU-31" target="UGOC6KP_R0XuHX1Id-cU-31" edge="1">
          <mxGeometry width="50" height="50" relative="1" as="geometry">
            <mxPoint x="-60" y="150" as="sourcePoint" />
            <mxPoint x="-10" y="100" as="targetPoint" />
          </mxGeometry>
        </mxCell>
        <mxCell id="UGOC6KP_R0XuHX1Id-cU-54" value="Characters" style="rounded=1;whiteSpace=wrap;html=1;" parent="1" vertex="1">
          <mxGeometry x="2124.13" y="-390" width="120" height="30" as="geometry" />
        </mxCell>
        <mxCell id="UGOC6KP_R0XuHX1Id-cU-55" value="About Me" style="rounded=1;whiteSpace=wrap;html=1;" parent="1" vertex="1">
          <mxGeometry x="2124.13" y="-350" width="120" height="30" as="geometry" />
        </mxCell>
        <mxCell id="UGOC6KP_R0XuHX1Id-cU-56" value="Extras" style="rounded=1;whiteSpace=wrap;html=1;" parent="1" vertex="1">
          <mxGeometry x="2124.13" y="-310" width="120" height="30" as="geometry" />
        </mxCell>
        <mxCell id="UGOC6KP_R0XuHX1Id-cU-57" value="&lt;font style=&quot;font-size: 23px;&quot;&gt;Titel&lt;/font&gt;" style="text;html=1;align=center;verticalAlign=middle;whiteSpace=wrap;rounded=0;" parent="1" vertex="1">
          <mxGeometry x="2154.13" y="-430" width="60" height="30" as="geometry" />
        </mxCell>
        <mxCell id="Yuj8acGgwzioiZGai9h4-97" value="" style="edgeStyle=orthogonalEdgeStyle;rounded=0;orthogonalLoop=1;jettySize=auto;html=1;" parent="1" source="UGOC6KP_R0XuHX1Id-cU-60" target="UGOC6KP_R0XuHX1Id-cU-58" edge="1">
          <mxGeometry relative="1" as="geometry" />
        </mxCell>
        <mxCell id="UGOC6KP_R0XuHX1Id-cU-60" value="Text Text Text Text Text Text Text Text Text Text Text Text Text Text Text Text" style="text;html=1;align=center;verticalAlign=middle;whiteSpace=wrap;rounded=0;" parent="1" vertex="1">
          <mxGeometry x="2334.13" y="-330" width="260" height="30" as="geometry" />
        </mxCell>
        <mxCell id="UGOC6KP_R0XuHX1Id-cU-58" value="&lt;font style=&quot;font-size: 36px;&quot;&gt;Titel&lt;/font&gt;" style="text;html=1;align=center;verticalAlign=middle;whiteSpace=wrap;rounded=0;" parent="1" vertex="1">
          <mxGeometry x="2424.13" y="-380" width="80" height="40" as="geometry" />
        </mxCell>
        <mxCell id="UGOC6KP_R0XuHX1Id-cU-75" value="" style="endArrow=none;html=1;rounded=0;" parent="1" edge="1">
          <mxGeometry width="50" height="50" relative="1" as="geometry">
            <mxPoint x="2393.5600000000004" y="-340" as="sourcePoint" />
            <mxPoint x="2534.7028571428573" y="-340" as="targetPoint" />
          </mxGeometry>
        </mxCell>
        <mxCell id="Yuj8acGgwzioiZGai9h4-1" value="" style="verticalLabelPosition=bottom;verticalAlign=top;html=1;shape=mxgraph.basic.rect;fillColor2=none;strokeWidth=1;size=20;indent=5;" parent="1" vertex="1">
          <mxGeometry x="2714.13" y="-450" width="560" height="610" as="geometry" />
        </mxCell>
        <mxCell id="Yuj8acGgwzioiZGai9h4-2" value="" style="verticalLabelPosition=bottom;verticalAlign=top;html=1;shape=mxgraph.basic.rect;fillColor2=none;strokeWidth=1;size=0;indent=0;fillColor=#CFCFCF;strokeColor=#23445d;" parent="1" vertex="1">
          <mxGeometry x="2714.13" y="-450" width="140" height="610" as="geometry" />
        </mxCell>
        <mxCell id="Yuj8acGgwzioiZGai9h4-3" value="Characters" style="rounded=1;whiteSpace=wrap;html=1;" parent="1" vertex="1">
          <mxGeometry x="2724.13" y="-390" width="120" height="30" as="geometry" />
        </mxCell>
        <mxCell id="Yuj8acGgwzioiZGai9h4-4" value="About Me" style="rounded=1;whiteSpace=wrap;html=1;" parent="1" vertex="1">
          <mxGeometry x="2724.13" y="-350" width="120" height="30" as="geometry" />
        </mxCell>
        <mxCell id="Yuj8acGgwzioiZGai9h4-5" value="Extras" style="rounded=1;whiteSpace=wrap;html=1;" parent="1" vertex="1">
          <mxGeometry x="2724.13" y="-310" width="120" height="30" as="geometry" />
        </mxCell>
        <mxCell id="Yuj8acGgwzioiZGai9h4-6" value="&lt;font style=&quot;font-size: 23px;&quot;&gt;Titel&lt;/font&gt;" style="text;html=1;align=center;verticalAlign=middle;whiteSpace=wrap;rounded=0;" parent="1" vertex="1">
          <mxGeometry x="2754.13" y="-430" width="60" height="30" as="geometry" />
        </mxCell>
        <mxCell id="Yuj8acGgwzioiZGai9h4-7" value="Text Text Text Text Text Text Text Text Text Text Text Text Text Text Text Text" style="text;html=1;align=center;verticalAlign=middle;whiteSpace=wrap;rounded=0;" parent="1" vertex="1">
          <mxGeometry x="2934.13" y="-330" width="260" height="30" as="geometry" />
        </mxCell>
        <mxCell id="Yuj8acGgwzioiZGai9h4-8" value="&lt;font style=&quot;font-size: 36px;&quot;&gt;Titel&lt;/font&gt;" style="text;html=1;align=center;verticalAlign=middle;whiteSpace=wrap;rounded=0;" parent="1" vertex="1">
          <mxGeometry x="3024.13" y="-380" width="80" height="40" as="geometry" />
        </mxCell>
        <mxCell id="Yuj8acGgwzioiZGai9h4-10" value="" style="endArrow=none;html=1;rounded=0;" parent="1" edge="1">
          <mxGeometry width="50" height="50" relative="1" as="geometry">
            <mxPoint x="2993.5600000000004" y="-340" as="sourcePoint" />
            <mxPoint x="3134.7028571428573" y="-340" as="targetPoint" />
          </mxGeometry>
        </mxCell>
        <mxCell id="Yuj8acGgwzioiZGai9h4-11" value="" style="group" parent="1" vertex="1" connectable="0">
          <mxGeometry x="2304.13" y="-280" width="330" height="170" as="geometry" />
        </mxCell>
        <mxCell id="Yuj8acGgwzioiZGai9h4-12" value="" style="rounded=0;whiteSpace=wrap;html=1;" parent="Yuj8acGgwzioiZGai9h4-11" vertex="1">
          <mxGeometry width="330" height="170" as="geometry" />
        </mxCell>
        <mxCell id="Yuj8acGgwzioiZGai9h4-13" value="" style="endArrow=none;html=1;rounded=0;entryX=1;entryY=0;entryDx=0;entryDy=0;exitX=0;exitY=1;exitDx=0;exitDy=0;" parent="Yuj8acGgwzioiZGai9h4-11" source="Yuj8acGgwzioiZGai9h4-12" target="Yuj8acGgwzioiZGai9h4-12" edge="1">
          <mxGeometry width="50" height="50" relative="1" as="geometry">
            <mxPoint x="50" y="70.83333333333333" as="sourcePoint" />
            <mxPoint x="100" y="47.22222222222222" as="targetPoint" />
          </mxGeometry>
        </mxCell>
        <mxCell id="Yuj8acGgwzioiZGai9h4-14" value="" style="endArrow=none;html=1;rounded=0;entryX=0;entryY=0;entryDx=0;entryDy=0;exitX=1;exitY=1;exitDx=0;exitDy=0;" parent="Yuj8acGgwzioiZGai9h4-11" source="Yuj8acGgwzioiZGai9h4-12" target="Yuj8acGgwzioiZGai9h4-12" edge="1">
          <mxGeometry width="50" height="50" relative="1" as="geometry">
            <mxPoint x="-60" y="70.83333333333333" as="sourcePoint" />
            <mxPoint x="-10" y="47.22222222222222" as="targetPoint" />
          </mxGeometry>
        </mxCell>
        <mxCell id="Yuj8acGgwzioiZGai9h4-15" value="&lt;font style=&quot;font-size: 24px;&quot;&gt;Head 2&lt;/font&gt;" style="text;html=1;align=center;verticalAlign=middle;whiteSpace=wrap;rounded=0;" parent="1" vertex="1">
          <mxGeometry x="2424.13" y="-60" width="80" height="40" as="geometry" />
        </mxCell>
        <mxCell id="_LmD8_kOQ_T7Rhvr41oa-2" value="" style="group" parent="1" vertex="1" connectable="0">
          <mxGeometry x="-180" y="1130" width="1130" height="50" as="geometry" />
        </mxCell>
        <mxCell id="Yuj8acGgwzioiZGai9h4-113" value="" style="verticalLabelPosition=bottom;verticalAlign=top;html=1;shape=mxgraph.basic.rect;fillColor2=none;strokeWidth=1;size=0;indent=0;fillColor=#CFCFCF;strokeColor=#23445d;" parent="_LmD8_kOQ_T7Rhvr41oa-2" vertex="1">
          <mxGeometry width="1130" height="50" as="geometry" />
        </mxCell>
        <mxCell id="Yuj8acGgwzioiZGai9h4-115" value="" style="shape=or;whiteSpace=wrap;html=1;rotation=-90;" parent="_LmD8_kOQ_T7Rhvr41oa-2" vertex="1">
          <mxGeometry x="910" width="30" height="51" as="geometry" />
        </mxCell>
        <mxCell id="Yuj8acGgwzioiZGai9h4-116" value="" style="shape=or;whiteSpace=wrap;html=1;rotation=-90;" parent="_LmD8_kOQ_T7Rhvr41oa-2" vertex="1">
          <mxGeometry x="977" width="30" height="51" as="geometry" />
        </mxCell>
        <mxCell id="Yuj8acGgwzioiZGai9h4-117" value="" style="shape=or;whiteSpace=wrap;html=1;rotation=-90;" parent="_LmD8_kOQ_T7Rhvr41oa-2" vertex="1">
          <mxGeometry x="1040" width="30" height="51" as="geometry" />
        </mxCell>
        <mxCell id="Yuj8acGgwzioiZGai9h4-118" value="ICON" style="text;html=1;align=center;verticalAlign=middle;whiteSpace=wrap;rounded=0;" parent="_LmD8_kOQ_T7Rhvr41oa-2" vertex="1">
          <mxGeometry x="895" y="13.5" width="60" height="30" as="geometry" />
        </mxCell>
        <mxCell id="Yuj8acGgwzioiZGai9h4-119" value="ICON" style="text;html=1;align=center;verticalAlign=middle;whiteSpace=wrap;rounded=0;" parent="_LmD8_kOQ_T7Rhvr41oa-2" vertex="1">
          <mxGeometry x="962" y="13.5" width="60" height="30" as="geometry" />
        </mxCell>
        <mxCell id="Yuj8acGgwzioiZGai9h4-120" value="ICON" style="text;html=1;align=center;verticalAlign=middle;whiteSpace=wrap;rounded=0;" parent="_LmD8_kOQ_T7Rhvr41oa-2" vertex="1">
          <mxGeometry x="1025" y="13.5" width="60" height="30" as="geometry" />
        </mxCell>
        <mxCell id="Yuj8acGgwzioiZGai9h4-121" value="" style="sketch=0;pointerEvents=1;shadow=0;dashed=0;html=1;strokeColor=none;fillColor=#505050;labelPosition=center;verticalLabelPosition=bottom;verticalAlign=top;outlineConnect=0;align=center;shape=mxgraph.office.concepts.home;" parent="_LmD8_kOQ_T7Rhvr41oa-2" vertex="1">
          <mxGeometry x="20" y="11.5" width="30" height="23.5" as="geometry" />
        </mxCell>
        <mxCell id="_LmD8_kOQ_T7Rhvr41oa-13" value="" style="rounded=1;whiteSpace=wrap;html=1;arcSize=50;" parent="_LmD8_kOQ_T7Rhvr41oa-2" vertex="1">
          <mxGeometry x="390" y="10" width="366.5" height="30" as="geometry" />
        </mxCell>
        <mxCell id="_LmD8_kOQ_T7Rhvr41oa-185" value="" style="ellipse;whiteSpace=wrap;html=1;aspect=fixed;rounded=0;strokeColor=default;align=center;verticalAlign=middle;fontFamily=Helvetica;fontSize=12;fontColor=default;resizable=1;fillColor=light-dark(#FF92E0,#EDEDED);" parent="_LmD8_kOQ_T7Rhvr41oa-2" vertex="1">
          <mxGeometry x="340" y="5" width="35" height="35" as="geometry" />
        </mxCell>
        <mxCell id="Yuj8acGgwzioiZGai9h4-77" value="" style="rounded=0;whiteSpace=wrap;html=1;movable=1;resizable=1;rotatable=1;deletable=1;editable=1;locked=0;connectable=1;fillColor=light-dark(#b3b3b3, #ededed);" parent="1" vertex="1">
          <mxGeometry x="200" y="1193" width="240" height="207" as="geometry" />
        </mxCell>
        <mxCell id="Yuj8acGgwzioiZGai9h4-80" value="" style="group;movable=1;resizable=1;rotatable=1;deletable=1;editable=1;locked=0;connectable=1;fillColor=none;" parent="1" vertex="1" connectable="0">
          <mxGeometry x="-143" y="1194" width="150" height="350" as="geometry" />
        </mxCell>
        <mxCell id="Yuj8acGgwzioiZGai9h4-81" value="" style="rounded=0;whiteSpace=wrap;html=1;movable=1;resizable=1;rotatable=1;deletable=1;editable=1;locked=0;connectable=1;fillColor=light-dark(#b3b3b3, #ededed);" parent="Yuj8acGgwzioiZGai9h4-80" vertex="1">
          <mxGeometry width="150" height="350" as="geometry" />
        </mxCell>
        <mxCell id="Yuj8acGgwzioiZGai9h4-88" value="" style="group;movable=1;resizable=1;rotatable=1;deletable=1;editable=1;locked=0;connectable=1;fillColor=light-dark(#b3b3b3, #ededed);container=0;" parent="1" vertex="1" connectable="0">
          <mxGeometry x="31" y="1195" width="140" height="180" as="geometry" />
        </mxCell>
        <mxCell id="Yuj8acGgwzioiZGai9h4-21" value="" style="group;movable=1;resizable=1;rotatable=1;deletable=1;editable=1;locked=0;connectable=1;fillColor=none;" parent="1" vertex="1" connectable="0">
          <mxGeometry x="720" y="1458" width="170" height="120" as="geometry" />
        </mxCell>
        <mxCell id="Yuj8acGgwzioiZGai9h4-22" value="" style="rounded=0;whiteSpace=wrap;html=1;movable=1;resizable=1;rotatable=1;deletable=1;editable=1;locked=0;connectable=1;fillColor=light-dark(#b3b3b3, #39454e);strokeColor=#23445d;" parent="Yuj8acGgwzioiZGai9h4-21" vertex="1">
          <mxGeometry width="170" height="120" as="geometry" />
        </mxCell>
        <mxCell id="Yuj8acGgwzioiZGai9h4-25" value="" style="group;movable=1;resizable=1;rotatable=1;deletable=1;editable=1;locked=0;connectable=1;" parent="1" vertex="1" connectable="0">
          <mxGeometry x="460" y="1460" width="220" height="200" as="geometry" />
        </mxCell>
        <mxCell id="Yuj8acGgwzioiZGai9h4-26" value="" style="rounded=0;whiteSpace=wrap;html=1;movable=1;resizable=1;rotatable=1;deletable=1;editable=1;locked=0;connectable=1;" parent="Yuj8acGgwzioiZGai9h4-25" vertex="1">
          <mxGeometry width="220" height="200" as="geometry" />
        </mxCell>
        <mxCell id="Yuj8acGgwzioiZGai9h4-27" value="" style="endArrow=none;html=1;rounded=0;entryX=1;entryY=0;entryDx=0;entryDy=0;exitX=0;exitY=1;exitDx=0;exitDy=0;movable=1;resizable=1;rotatable=1;deletable=1;editable=1;locked=0;connectable=1;" parent="Yuj8acGgwzioiZGai9h4-25" source="Yuj8acGgwzioiZGai9h4-26" target="Yuj8acGgwzioiZGai9h4-26" edge="1">
          <mxGeometry width="50" height="50" relative="1" as="geometry">
            <mxPoint x="33.33333333333333" y="83.33333333333334" as="sourcePoint" />
            <mxPoint x="66.66666666666666" y="55.555555555555564" as="targetPoint" />
          </mxGeometry>
        </mxCell>
        <mxCell id="Yuj8acGgwzioiZGai9h4-28" value="" style="endArrow=none;html=1;rounded=0;entryX=0;entryY=0;entryDx=0;entryDy=0;exitX=1;exitY=1;exitDx=0;exitDy=0;movable=1;resizable=1;rotatable=1;deletable=1;editable=1;locked=0;connectable=1;" parent="Yuj8acGgwzioiZGai9h4-25" source="Yuj8acGgwzioiZGai9h4-26" target="Yuj8acGgwzioiZGai9h4-26" edge="1">
          <mxGeometry width="50" height="50" relative="1" as="geometry">
            <mxPoint x="-39.99999999999999" y="83.33333333333334" as="sourcePoint" />
            <mxPoint x="-6.666666666666666" y="55.555555555555564" as="targetPoint" />
          </mxGeometry>
        </mxCell>
        <mxCell id="Yuj8acGgwzioiZGai9h4-30" value="" style="group;movable=1;resizable=1;rotatable=1;deletable=1;editable=1;locked=0;connectable=1;fillColor=default;" parent="1" vertex="1" connectable="0">
          <mxGeometry x="670" y="1597" width="220" height="200" as="geometry" />
        </mxCell>
        <mxCell id="Yuj8acGgwzioiZGai9h4-31" value="" style="rounded=0;whiteSpace=wrap;html=1;movable=1;resizable=1;rotatable=1;deletable=1;editable=1;locked=0;connectable=1;fillColor=light-dark(#b3b3b3, #ededed);" parent="Yuj8acGgwzioiZGai9h4-30" vertex="1">
          <mxGeometry x="50" y="20" width="170" height="180" as="geometry" />
        </mxCell>
        <mxCell id="Yuj8acGgwzioiZGai9h4-39" value="" style="rounded=0;whiteSpace=wrap;html=1;movable=1;resizable=1;rotatable=1;deletable=1;editable=1;locked=0;connectable=1;" parent="1" vertex="1">
          <mxGeometry x="325" y="1429" width="110" height="190" as="geometry" />
        </mxCell>
        <mxCell id="Yuj8acGgwzioiZGai9h4-40" value="" style="endArrow=none;html=1;rounded=0;entryX=1;entryY=0;entryDx=0;entryDy=0;exitX=0;exitY=1;exitDx=0;exitDy=0;movable=1;resizable=1;rotatable=1;deletable=1;editable=1;locked=0;connectable=1;" parent="1" source="Yuj8acGgwzioiZGai9h4-39" target="Yuj8acGgwzioiZGai9h4-39" edge="1">
          <mxGeometry width="50" height="50" relative="1" as="geometry">
            <mxPoint x="903.3333333333335" y="2885.9523809523816" as="sourcePoint" />
            <mxPoint x="936.6666666666665" y="2836.3492063492067" as="targetPoint" />
          </mxGeometry>
        </mxCell>
        <mxCell id="Yuj8acGgwzioiZGai9h4-41" value="" style="endArrow=none;html=1;rounded=0;entryX=0;entryY=0;entryDx=0;entryDy=0;exitX=1;exitY=1;exitDx=0;exitDy=0;movable=1;resizable=1;rotatable=1;deletable=1;editable=1;locked=0;connectable=1;" parent="1" source="Yuj8acGgwzioiZGai9h4-39" target="Yuj8acGgwzioiZGai9h4-39" edge="1">
          <mxGeometry width="50" height="50" relative="1" as="geometry">
            <mxPoint x="830" y="2885.9523809523816" as="sourcePoint" />
            <mxPoint x="863.3333333333335" y="2836.3492063492067" as="targetPoint" />
          </mxGeometry>
        </mxCell>
        <mxCell id="Yuj8acGgwzioiZGai9h4-74" value="" style="rounded=0;whiteSpace=wrap;html=1;movable=1;resizable=1;rotatable=1;deletable=1;editable=1;locked=0;connectable=1;" parent="1" vertex="1">
          <mxGeometry x="200" y="1429" width="110" height="190" as="geometry" />
        </mxCell>
        <mxCell id="Yuj8acGgwzioiZGai9h4-75" value="" style="endArrow=none;html=1;rounded=0;entryX=1;entryY=0;entryDx=0;entryDy=0;exitX=0;exitY=1;exitDx=0;exitDy=0;movable=1;resizable=1;rotatable=1;deletable=1;editable=1;locked=0;connectable=1;" parent="1" source="Yuj8acGgwzioiZGai9h4-74" target="Yuj8acGgwzioiZGai9h4-74" edge="1">
          <mxGeometry width="50" height="50" relative="1" as="geometry">
            <mxPoint x="783.3333333333335" y="2885.9523809523816" as="sourcePoint" />
            <mxPoint x="816.6666666666665" y="2836.3492063492067" as="targetPoint" />
          </mxGeometry>
        </mxCell>
        <mxCell id="Yuj8acGgwzioiZGai9h4-76" value="" style="endArrow=none;html=1;rounded=0;entryX=0;entryY=0;entryDx=0;entryDy=0;exitX=1;exitY=1;exitDx=0;exitDy=0;movable=1;resizable=1;rotatable=1;deletable=1;editable=1;locked=0;connectable=1;" parent="1" source="Yuj8acGgwzioiZGai9h4-74" target="Yuj8acGgwzioiZGai9h4-74" edge="1">
          <mxGeometry width="50" height="50" relative="1" as="geometry">
            <mxPoint x="710" y="2864.52380952381" as="sourcePoint" />
            <mxPoint x="743.3333333333335" y="2814.920634920635" as="targetPoint" />
          </mxGeometry>
        </mxCell>
        <mxCell id="Yuj8acGgwzioiZGai9h4-84" value="" style="group;movable=1;resizable=1;rotatable=1;deletable=1;editable=1;locked=0;connectable=1;" parent="1" vertex="1" connectable="0">
          <mxGeometry x="30" y="1412" width="140" height="130" as="geometry" />
        </mxCell>
        <mxCell id="Yuj8acGgwzioiZGai9h4-85" value="" style="rounded=0;whiteSpace=wrap;html=1;movable=1;resizable=1;rotatable=1;deletable=1;editable=1;locked=0;connectable=1;" parent="Yuj8acGgwzioiZGai9h4-84" vertex="1">
          <mxGeometry width="140" height="130" as="geometry" />
        </mxCell>
        <mxCell id="Yuj8acGgwzioiZGai9h4-86" value="" style="endArrow=none;html=1;rounded=0;entryX=1;entryY=0;entryDx=0;entryDy=0;exitX=0;exitY=1;exitDx=0;exitDy=0;movable=1;resizable=1;rotatable=1;deletable=1;editable=1;locked=0;connectable=1;" parent="Yuj8acGgwzioiZGai9h4-84" source="Yuj8acGgwzioiZGai9h4-85" target="Yuj8acGgwzioiZGai9h4-85" edge="1">
          <mxGeometry width="50" height="50" relative="1" as="geometry">
            <mxPoint x="21.212121212121207" y="54.166666666666664" as="sourcePoint" />
            <mxPoint x="42.424242424242415" y="36.11111111111111" as="targetPoint" />
          </mxGeometry>
        </mxCell>
        <mxCell id="Yuj8acGgwzioiZGai9h4-87" value="" style="endArrow=none;html=1;rounded=0;entryX=0;entryY=0;entryDx=0;entryDy=0;exitX=1;exitY=1;exitDx=0;exitDy=0;movable=1;resizable=1;rotatable=1;deletable=1;editable=1;locked=0;connectable=1;" parent="Yuj8acGgwzioiZGai9h4-84" source="Yuj8acGgwzioiZGai9h4-85" target="Yuj8acGgwzioiZGai9h4-85" edge="1">
          <mxGeometry width="50" height="50" relative="1" as="geometry">
            <mxPoint x="-25.45454545454545" y="54.166666666666664" as="sourcePoint" />
            <mxPoint x="-4.242424242424242" y="36.11111111111111" as="targetPoint" />
          </mxGeometry>
        </mxCell>
        <mxCell id="Yuj8acGgwzioiZGai9h4-35" value="" style="rounded=0;whiteSpace=wrap;html=1;movable=1;resizable=1;rotatable=1;deletable=1;editable=1;locked=0;connectable=1;" parent="1" vertex="1">
          <mxGeometry x="460" y="1682" width="220" height="110.00000000000001" as="geometry" />
        </mxCell>
        <mxCell id="Yuj8acGgwzioiZGai9h4-36" value="" style="endArrow=none;html=1;rounded=0;entryX=1;entryY=0;entryDx=0;entryDy=0;exitX=0;exitY=1;exitDx=0;exitDy=0;movable=1;resizable=1;rotatable=1;deletable=1;editable=1;locked=0;connectable=1;" parent="1" source="Yuj8acGgwzioiZGai9h4-35" target="Yuj8acGgwzioiZGai9h4-35" edge="1">
          <mxGeometry width="50" height="50" relative="1" as="geometry">
            <mxPoint x="493.33333333333326" y="2197.559523809524" as="sourcePoint" />
            <mxPoint x="526.6666666666666" y="2170.2777777777783" as="targetPoint" />
          </mxGeometry>
        </mxCell>
        <mxCell id="Yuj8acGgwzioiZGai9h4-37" value="" style="endArrow=none;html=1;rounded=0;entryX=0;entryY=0;entryDx=0;entryDy=0;exitX=1;exitY=1;exitDx=0;exitDy=0;movable=1;resizable=1;rotatable=1;deletable=1;editable=1;locked=0;connectable=1;" parent="1" source="Yuj8acGgwzioiZGai9h4-35" target="Yuj8acGgwzioiZGai9h4-35" edge="1">
          <mxGeometry width="50" height="50" relative="1" as="geometry">
            <mxPoint x="420" y="2197.559523809524" as="sourcePoint" />
            <mxPoint x="453.33333333333326" y="2170.2777777777783" as="targetPoint" />
          </mxGeometry>
        </mxCell>
        <mxCell id="Yuj8acGgwzioiZGai9h4-17" value="" style="group;movable=1;resizable=1;rotatable=1;deletable=1;editable=1;locked=0;connectable=1;fillColor=light-dark(#b3b3b3, #a1a1a1);container=0;" parent="1" vertex="1" connectable="0">
          <mxGeometry x="460" y="1193" width="430" height="220" as="geometry" />
        </mxCell>
        <mxCell id="Yuj8acGgwzioiZGai9h4-18" value="" style="rounded=0;whiteSpace=wrap;html=1;movable=1;resizable=1;rotatable=1;deletable=1;editable=1;locked=0;connectable=1;fillColor=light-dark(#b3b3b3, #a1a1a1);" parent="1" vertex="1">
          <mxGeometry x="460" y="1193" width="430" height="220.00000000000003" as="geometry" />
        </mxCell>
        <mxCell id="Yuj8acGgwzioiZGai9h4-89" value="" style="rounded=0;whiteSpace=wrap;html=1;movable=1;resizable=1;rotatable=1;deletable=1;editable=1;locked=0;connectable=1;fillColor=light-dark(#b3b3b3, #5f5f5f);" parent="1" vertex="1">
          <mxGeometry x="31" y="1195" width="140" height="180" as="geometry" />
        </mxCell>
        <mxCell id="Yuj8acGgwzioiZGai9h4-52" value="" style="rounded=0;whiteSpace=wrap;html=1;movable=1;resizable=1;rotatable=1;deletable=1;editable=1;locked=0;connectable=1;fillColor=light-dark(#b3b3b3, #ededed);" parent="1" vertex="1">
          <mxGeometry x="-147" y="1572" width="320" height="220.00000000000003" as="geometry" />
        </mxCell>
        <mxCell id="Yuj8acGgwzioiZGai9h4-65" value="" style="group;movable=1;resizable=1;rotatable=1;deletable=1;editable=1;locked=0;connectable=1;" parent="1" vertex="1" connectable="0">
          <mxGeometry x="199" y="1652" width="241" height="140" as="geometry" />
        </mxCell>
        <mxCell id="Yuj8acGgwzioiZGai9h4-58" value="" style="rounded=0;whiteSpace=wrap;html=1;container=0;movable=1;resizable=1;rotatable=1;deletable=1;editable=1;locked=0;connectable=1;" parent="Yuj8acGgwzioiZGai9h4-65" vertex="1">
          <mxGeometry width="241" height="140" as="geometry" />
        </mxCell>
        <mxCell id="Yuj8acGgwzioiZGai9h4-59" value="" style="endArrow=none;html=1;rounded=0;entryX=1;entryY=0;entryDx=0;entryDy=0;exitX=0;exitY=1;exitDx=0;exitDy=0;movable=1;resizable=1;rotatable=1;deletable=1;editable=1;locked=0;connectable=1;" parent="Yuj8acGgwzioiZGai9h4-65" source="Yuj8acGgwzioiZGai9h4-58" target="Yuj8acGgwzioiZGai9h4-58" edge="1">
          <mxGeometry width="50" height="50" relative="1" as="geometry">
            <mxPoint x="36.51515151515156" y="58.33333333333351" as="sourcePoint" />
            <mxPoint x="73.03030303030299" y="38.888888888889014" as="targetPoint" />
          </mxGeometry>
        </mxCell>
        <mxCell id="Yuj8acGgwzioiZGai9h4-60" value="" style="endArrow=none;html=1;rounded=0;entryX=0;entryY=0;entryDx=0;entryDy=0;exitX=1;exitY=1;exitDx=0;exitDy=0;movable=1;resizable=1;rotatable=1;deletable=1;editable=1;locked=0;connectable=1;" parent="Yuj8acGgwzioiZGai9h4-65" source="Yuj8acGgwzioiZGai9h4-58" target="Yuj8acGgwzioiZGai9h4-58" edge="1">
          <mxGeometry width="50" height="50" relative="1" as="geometry">
            <mxPoint x="-43.81818181818182" y="58.33333333333351" as="sourcePoint" />
            <mxPoint x="-7.303030303030262" y="38.888888888889014" as="targetPoint" />
          </mxGeometry>
        </mxCell>
        <mxCell id="_LmD8_kOQ_T7Rhvr41oa-53" value="" style="group" parent="1" vertex="1" connectable="0">
          <mxGeometry x="-10" y="1330" width="760" height="610" as="geometry" />
        </mxCell>
        <mxCell id="Yuj8acGgwzioiZGai9h4-94" value="" style="rounded=1;whiteSpace=wrap;html=1;fillColor=light-dark(#EAEAEA,#EDEDED);" parent="_LmD8_kOQ_T7Rhvr41oa-53" vertex="1">
          <mxGeometry x="8.25" width="743.5" height="610" as="geometry" />
        </mxCell>
        <mxCell id="Yuj8acGgwzioiZGai9h4-98" value="&lt;font style=&quot;font-size: 70px;&quot;&gt;Titel&lt;/font&gt;" style="text;html=1;align=center;verticalAlign=middle;whiteSpace=wrap;rounded=0;movable=1;resizable=1;rotatable=1;deletable=1;editable=1;locked=0;connectable=1;" parent="_LmD8_kOQ_T7Rhvr41oa-53" vertex="1">
          <mxGeometry x="336.75" y="90" width="80" height="40" as="geometry" />
        </mxCell>
        <mxCell id="Yuj8acGgwzioiZGai9h4-100" value="" style="rounded=0;whiteSpace=wrap;html=1;fillColor=#A5A5A5;strokeColor=none;movable=1;resizable=1;rotatable=1;deletable=1;editable=1;locked=0;connectable=1;" parent="_LmD8_kOQ_T7Rhvr41oa-53" vertex="1">
          <mxGeometry x="235" y="150" width="290" height="10" as="geometry" />
        </mxCell>
        <mxCell id="Yuj8acGgwzioiZGai9h4-101" value="&lt;font style=&quot;font-size: 23px;&quot;&gt;TextTextTextTextTextTextTextTextTextTextTextTextT&lt;/font&gt;&lt;div&gt;&lt;font style=&quot;font-size: 23px;&quot;&gt;&lt;font style=&quot;&quot;&gt;extTextTextTextTextTextText&lt;/font&gt;&lt;span style=&quot;background-color: transparent; color: light-dark(rgb(0, 0, 0), rgb(255, 255, 255));&quot;&gt;TextTextTextTextTextTextTe&lt;/span&gt;&lt;/font&gt;&lt;/div&gt;&lt;div&gt;&lt;font style=&quot;font-size: 23px;&quot;&gt;&lt;span style=&quot;background-color: transparent; color: light-dark(rgb(0, 0, 0), rgb(255, 255, 255));&quot;&gt;xtTextTextTextTextTextTextTextTextT&lt;/span&gt;&lt;span style=&quot;background-color: transparent; color: light-dark(rgb(0, 0, 0), rgb(255, 255, 255));&quot;&gt;extTextTextTextText&lt;/span&gt;&lt;/font&gt;&lt;/div&gt;&lt;div&gt;&lt;span style=&quot;background-color: transparent; color: light-dark(rgb(0, 0, 0), rgb(255, 255, 255));&quot;&gt;&lt;font style=&quot;font-size: 23px;&quot;&gt;TextTextTextTextTextTextTextTextTextTextTextTextText&lt;/font&gt;&lt;/span&gt;&lt;/div&gt;&lt;div&gt;&lt;font style=&quot;font-size: 23px;&quot;&gt;&lt;span style=&quot;background-color: transparent; color: light-dark(rgb(0, 0, 0), rgb(255, 255, 255));&quot;&gt;TextTextTextTextTextTex&lt;/span&gt;&lt;span style=&quot;background-color: transparent; color: light-dark(rgb(0, 0, 0), rgb(255, 255, 255));&quot;&gt;tTextTextTextv&lt;/span&gt;&lt;/font&gt;&lt;/div&gt;" style="text;html=1;align=center;verticalAlign=middle;whiteSpace=wrap;rounded=0;movable=1;resizable=1;rotatable=1;deletable=1;editable=1;locked=0;connectable=1;" parent="_LmD8_kOQ_T7Rhvr41oa-53" vertex="1">
          <mxGeometry y="180" width="760" height="171" as="geometry" />
        </mxCell>
        <mxCell id="Yuj8acGgwzioiZGai9h4-102" value="&lt;font style=&quot;font-size: 35px;&quot;&gt;BUTTON&lt;/font&gt;" style="rounded=1;whiteSpace=wrap;html=1;fillColor=#A9A9A9;movable=1;resizable=1;rotatable=1;deletable=1;editable=1;locked=0;connectable=1;" parent="_LmD8_kOQ_T7Rhvr41oa-53" vertex="1">
          <mxGeometry x="259.78" y="388" width="231.97" height="60" as="geometry" />
        </mxCell>
        <mxCell id="_LmD8_kOQ_T7Rhvr41oa-34" value="&lt;font style=&quot;font-size: 35px;&quot;&gt;BUTTON&lt;/font&gt;" style="rounded=1;whiteSpace=wrap;html=1;fillColor=#A9A9A9;movable=1;resizable=1;rotatable=1;deletable=1;editable=1;locked=0;connectable=1;" parent="_LmD8_kOQ_T7Rhvr41oa-53" vertex="1">
          <mxGeometry x="261.38" y="468" width="231.97" height="60" as="geometry" />
        </mxCell>
        <mxCell id="_LmD8_kOQ_T7Rhvr41oa-1" value="" style="verticalLabelPosition=bottom;verticalAlign=top;html=1;shape=mxgraph.basic.rect;fillColor2=none;strokeWidth=1;size=20;indent=5;movable=1;resizable=1;rotatable=1;deletable=1;editable=1;locked=0;connectable=1;" parent="1" vertex="1">
          <mxGeometry x="1100" y="1130" width="1130" height="1660" as="geometry" />
        </mxCell>
        <mxCell id="_LmD8_kOQ_T7Rhvr41oa-14" value="" style="group" parent="1" vertex="1" connectable="0">
          <mxGeometry x="1100" y="1131" width="1130" height="50" as="geometry" />
        </mxCell>
        <mxCell id="_LmD8_kOQ_T7Rhvr41oa-15" value="" style="verticalLabelPosition=bottom;verticalAlign=top;html=1;shape=mxgraph.basic.rect;fillColor2=none;strokeWidth=1;size=0;indent=0;fillColor=#CFCFCF;strokeColor=#23445d;" parent="_LmD8_kOQ_T7Rhvr41oa-14" vertex="1">
          <mxGeometry width="1130" height="50" as="geometry" />
        </mxCell>
        <mxCell id="_LmD8_kOQ_T7Rhvr41oa-16" value="" style="shape=or;whiteSpace=wrap;html=1;rotation=-90;" parent="_LmD8_kOQ_T7Rhvr41oa-14" vertex="1">
          <mxGeometry x="910" width="30" height="51" as="geometry" />
        </mxCell>
        <mxCell id="_LmD8_kOQ_T7Rhvr41oa-17" value="" style="shape=or;whiteSpace=wrap;html=1;rotation=-90;" parent="_LmD8_kOQ_T7Rhvr41oa-14" vertex="1">
          <mxGeometry x="977" width="30" height="51" as="geometry" />
        </mxCell>
        <mxCell id="_LmD8_kOQ_T7Rhvr41oa-18" value="" style="shape=or;whiteSpace=wrap;html=1;rotation=-90;" parent="_LmD8_kOQ_T7Rhvr41oa-14" vertex="1">
          <mxGeometry x="1040" width="30" height="51" as="geometry" />
        </mxCell>
        <mxCell id="_LmD8_kOQ_T7Rhvr41oa-19" value="ICON" style="text;html=1;align=center;verticalAlign=middle;whiteSpace=wrap;rounded=0;" parent="_LmD8_kOQ_T7Rhvr41oa-14" vertex="1">
          <mxGeometry x="895" y="13.5" width="60" height="30" as="geometry" />
        </mxCell>
        <mxCell id="_LmD8_kOQ_T7Rhvr41oa-20" value="ICON" style="text;html=1;align=center;verticalAlign=middle;whiteSpace=wrap;rounded=0;" parent="_LmD8_kOQ_T7Rhvr41oa-14" vertex="1">
          <mxGeometry x="962" y="13.5" width="60" height="30" as="geometry" />
        </mxCell>
        <mxCell id="_LmD8_kOQ_T7Rhvr41oa-21" value="ICON" style="text;html=1;align=center;verticalAlign=middle;whiteSpace=wrap;rounded=0;" parent="_LmD8_kOQ_T7Rhvr41oa-14" vertex="1">
          <mxGeometry x="1025" y="13.5" width="60" height="30" as="geometry" />
        </mxCell>
        <mxCell id="_LmD8_kOQ_T7Rhvr41oa-22" value="" style="sketch=0;pointerEvents=1;shadow=0;dashed=0;html=1;strokeColor=none;fillColor=#505050;labelPosition=center;verticalLabelPosition=bottom;verticalAlign=top;outlineConnect=0;align=center;shape=mxgraph.office.concepts.home;" parent="_LmD8_kOQ_T7Rhvr41oa-14" vertex="1">
          <mxGeometry x="20" y="11.5" width="30" height="23.5" as="geometry" />
        </mxCell>
        <mxCell id="_LmD8_kOQ_T7Rhvr41oa-23" value="" style="rounded=1;whiteSpace=wrap;html=1;arcSize=50;" parent="_LmD8_kOQ_T7Rhvr41oa-14" vertex="1">
          <mxGeometry x="390" y="10" width="366.5" height="30" as="geometry" />
        </mxCell>
        <mxCell id="_LmD8_kOQ_T7Rhvr41oa-187" value="" style="ellipse;whiteSpace=wrap;html=1;aspect=fixed;rounded=0;strokeColor=default;align=center;verticalAlign=middle;fontFamily=Helvetica;fontSize=12;fontColor=default;resizable=1;fillColor=light-dark(#FF92E0,#EDEDED);" parent="_LmD8_kOQ_T7Rhvr41oa-14" vertex="1">
          <mxGeometry x="340" y="5.75" width="35" height="35" as="geometry" />
        </mxCell>
        <mxCell id="_LmD8_kOQ_T7Rhvr41oa-57" value="" style="group" parent="1" vertex="1" connectable="0">
          <mxGeometry x="2662.94" y="1110" width="330" height="243" as="geometry" />
        </mxCell>
        <mxCell id="_LmD8_kOQ_T7Rhvr41oa-60" value="" style="ellipse;whiteSpace=wrap;html=1;aspect=fixed;" parent="_LmD8_kOQ_T7Rhvr41oa-57" vertex="1">
          <mxGeometry x="60" width="209.99999999999997" height="209.99999999999997" as="geometry" />
        </mxCell>
        <mxCell id="_LmD8_kOQ_T7Rhvr41oa-61" value="" style="ellipse;whiteSpace=wrap;html=1;strokeColor=none;" parent="_LmD8_kOQ_T7Rhvr41oa-57" vertex="1">
          <mxGeometry x="102.33870967741936" y="172.5" width="125.32258064516128" height="57.5" as="geometry" />
        </mxCell>
        <mxCell id="_LmD8_kOQ_T7Rhvr41oa-62" value="" style="ellipse;whiteSpace=wrap;html=1;aspect=fixed;fillColor=light-dark(#b0b0b0, #ededed);" parent="_LmD8_kOQ_T7Rhvr41oa-57" vertex="1">
          <mxGeometry x="89.63709677419355" y="26.953125" width="150.7258064516129" height="150.7258064516129" as="geometry" />
        </mxCell>
        <mxCell id="_LmD8_kOQ_T7Rhvr41oa-63" value="&lt;span style=&quot;font-size: 25px;&quot;&gt;Title&lt;/span&gt;" style="text;html=1;align=center;verticalAlign=middle;whiteSpace=wrap;rounded=0;" parent="_LmD8_kOQ_T7Rhvr41oa-57" vertex="1">
          <mxGeometry x="135" y="190" width="60" height="30" as="geometry" />
        </mxCell>
        <mxCell id="_LmD8_kOQ_T7Rhvr41oa-58" value="&lt;font style=&quot;font-size: 17px;&quot;&gt;mini Sentence&lt;/font&gt;" style="text;html=1;align=center;verticalAlign=middle;whiteSpace=wrap;rounded=0;fontFamily=Helvetica;fontSize=12;fontColor=default;resizable=1;" parent="_LmD8_kOQ_T7Rhvr41oa-57" vertex="1">
          <mxGeometry y="213" width="330" height="30" as="geometry" />
        </mxCell>
        <mxCell id="_LmD8_kOQ_T7Rhvr41oa-110" value="" style="group" parent="1" vertex="1" connectable="0">
          <mxGeometry x="2640" y="1309.06" width="60" height="305.8699999999999" as="geometry" />
        </mxCell>
        <mxCell id="_LmD8_kOQ_T7Rhvr41oa-108" value="" style="rounded=1;whiteSpace=wrap;html=1;strokeColor=default;align=center;verticalAlign=middle;fontFamily=Helvetica;fontSize=12;fontColor=default;resizable=1;fillColor=light-dark(#EAEAEA,#EDEDED);arcSize=50;rotation=90;" parent="_LmD8_kOQ_T7Rhvr41oa-110" vertex="1">
          <mxGeometry x="-122.93499999999995" y="122.93499999999995" width="305.87" height="60" as="geometry" />
        </mxCell>
        <mxCell id="_LmD8_kOQ_T7Rhvr41oa-109" value="" style="ellipse;whiteSpace=wrap;html=1;aspect=fixed;rounded=0;strokeColor=default;align=center;verticalAlign=middle;fontFamily=Helvetica;fontSize=12;fontColor=default;resizable=1;fillColor=light-dark(#b3b3b3, #ededed);" parent="_LmD8_kOQ_T7Rhvr41oa-110" vertex="1">
          <mxGeometry x="5.005000000000109" y="45.934999999999945" width="50" height="50" as="geometry" />
        </mxCell>
        <mxCell id="_LmD8_kOQ_T7Rhvr41oa-119" value="" style="group" parent="1" vertex="1" connectable="0">
          <mxGeometry x="1150" y="1250" width="1050" height="692" as="geometry" />
        </mxCell>
        <mxCell id="_LmD8_kOQ_T7Rhvr41oa-64" value="" style="group" parent="_LmD8_kOQ_T7Rhvr41oa-119" vertex="1" connectable="0">
          <mxGeometry x="350" y="120" width="330" height="243" as="geometry" />
        </mxCell>
        <mxCell id="_LmD8_kOQ_T7Rhvr41oa-65" value="" style="ellipse;whiteSpace=wrap;html=1;aspect=fixed;" parent="_LmD8_kOQ_T7Rhvr41oa-64" vertex="1">
          <mxGeometry x="60" width="209.99999999999997" height="209.99999999999997" as="geometry" />
        </mxCell>
        <mxCell id="_LmD8_kOQ_T7Rhvr41oa-66" value="" style="ellipse;whiteSpace=wrap;html=1;strokeColor=none;" parent="_LmD8_kOQ_T7Rhvr41oa-64" vertex="1">
          <mxGeometry x="102.33870967741936" y="172.5" width="125.32258064516128" height="57.5" as="geometry" />
        </mxCell>
        <mxCell id="_LmD8_kOQ_T7Rhvr41oa-67" value="Photo Main Char" style="ellipse;whiteSpace=wrap;html=1;aspect=fixed;fillColor=light-dark(#b0b0b0, #ededed);" parent="_LmD8_kOQ_T7Rhvr41oa-64" vertex="1">
          <mxGeometry x="89.63709677419355" y="26.953125" width="150.7258064516129" height="150.7258064516129" as="geometry" />
        </mxCell>
        <mxCell id="_LmD8_kOQ_T7Rhvr41oa-68" value="&lt;span style=&quot;font-size: 25px;&quot;&gt;Title&lt;/span&gt;" style="text;html=1;align=center;verticalAlign=middle;whiteSpace=wrap;rounded=0;" parent="_LmD8_kOQ_T7Rhvr41oa-64" vertex="1">
          <mxGeometry x="135" y="190" width="60" height="30" as="geometry" />
        </mxCell>
        <mxCell id="_LmD8_kOQ_T7Rhvr41oa-69" value="&lt;font style=&quot;font-size: 17px;&quot;&gt;mini Sentence&lt;/font&gt;" style="text;html=1;align=center;verticalAlign=middle;whiteSpace=wrap;rounded=0;fontFamily=Helvetica;fontSize=12;fontColor=default;resizable=1;" parent="_LmD8_kOQ_T7Rhvr41oa-64" vertex="1">
          <mxGeometry y="213" width="330" height="30" as="geometry" />
        </mxCell>
        <mxCell id="_LmD8_kOQ_T7Rhvr41oa-82" value="" style="group" parent="_LmD8_kOQ_T7Rhvr41oa-119" vertex="1" connectable="0">
          <mxGeometry x="610" y="339" width="330" height="243" as="geometry" />
        </mxCell>
        <mxCell id="_LmD8_kOQ_T7Rhvr41oa-83" value="" style="ellipse;whiteSpace=wrap;html=1;aspect=fixed;" parent="_LmD8_kOQ_T7Rhvr41oa-82" vertex="1">
          <mxGeometry x="60" width="209.99999999999997" height="209.99999999999997" as="geometry" />
        </mxCell>
        <mxCell id="_LmD8_kOQ_T7Rhvr41oa-84" value="" style="ellipse;whiteSpace=wrap;html=1;strokeColor=none;" parent="_LmD8_kOQ_T7Rhvr41oa-82" vertex="1">
          <mxGeometry x="102.33870967741936" y="172.5" width="125.32258064516128" height="57.5" as="geometry" />
        </mxCell>
        <mxCell id="_LmD8_kOQ_T7Rhvr41oa-85" value="Photo Main Char" style="ellipse;whiteSpace=wrap;html=1;aspect=fixed;fillColor=light-dark(#b0b0b0, #ededed);" parent="_LmD8_kOQ_T7Rhvr41oa-82" vertex="1">
          <mxGeometry x="89.63709677419355" y="26.953125" width="150.7258064516129" height="150.7258064516129" as="geometry" />
        </mxCell>
        <mxCell id="_LmD8_kOQ_T7Rhvr41oa-86" value="&lt;span style=&quot;font-size: 25px;&quot;&gt;Title&lt;/span&gt;" style="text;html=1;align=center;verticalAlign=middle;whiteSpace=wrap;rounded=0;" parent="_LmD8_kOQ_T7Rhvr41oa-82" vertex="1">
          <mxGeometry x="135" y="190" width="60" height="30" as="geometry" />
        </mxCell>
        <mxCell id="_LmD8_kOQ_T7Rhvr41oa-87" value="&lt;font style=&quot;font-size: 17px;&quot;&gt;mini Sentence&lt;/font&gt;" style="text;html=1;align=center;verticalAlign=middle;whiteSpace=wrap;rounded=0;fontFamily=Helvetica;fontSize=12;fontColor=default;resizable=1;" parent="_LmD8_kOQ_T7Rhvr41oa-82" vertex="1">
          <mxGeometry y="213" width="330" height="30" as="geometry" />
        </mxCell>
        <mxCell id="_LmD8_kOQ_T7Rhvr41oa-88" value="" style="group" parent="_LmD8_kOQ_T7Rhvr41oa-119" vertex="1" connectable="0">
          <mxGeometry x="91" y="332" width="330" height="243" as="geometry" />
        </mxCell>
        <mxCell id="_LmD8_kOQ_T7Rhvr41oa-89" value="" style="ellipse;whiteSpace=wrap;html=1;aspect=fixed;" parent="_LmD8_kOQ_T7Rhvr41oa-88" vertex="1">
          <mxGeometry x="60" width="209.99999999999997" height="209.99999999999997" as="geometry" />
        </mxCell>
        <mxCell id="_LmD8_kOQ_T7Rhvr41oa-90" value="" style="ellipse;whiteSpace=wrap;html=1;strokeColor=none;" parent="_LmD8_kOQ_T7Rhvr41oa-88" vertex="1">
          <mxGeometry x="102.33870967741936" y="172.5" width="125.32258064516128" height="57.5" as="geometry" />
        </mxCell>
        <mxCell id="_LmD8_kOQ_T7Rhvr41oa-91" value="Photo Main Char" style="ellipse;whiteSpace=wrap;html=1;aspect=fixed;fillColor=light-dark(#b0b0b0, #ededed);" parent="_LmD8_kOQ_T7Rhvr41oa-88" vertex="1">
          <mxGeometry x="89.63709677419355" y="26.953125" width="150.7258064516129" height="150.7258064516129" as="geometry" />
        </mxCell>
        <mxCell id="_LmD8_kOQ_T7Rhvr41oa-92" value="&lt;span style=&quot;font-size: 25px;&quot;&gt;Title&lt;/span&gt;" style="text;html=1;align=center;verticalAlign=middle;whiteSpace=wrap;rounded=0;" parent="_LmD8_kOQ_T7Rhvr41oa-88" vertex="1">
          <mxGeometry x="135" y="190" width="60" height="30" as="geometry" />
        </mxCell>
        <mxCell id="_LmD8_kOQ_T7Rhvr41oa-93" value="&lt;font style=&quot;font-size: 17px;&quot;&gt;mini Sentence&lt;/font&gt;" style="text;html=1;align=center;verticalAlign=middle;whiteSpace=wrap;rounded=0;fontFamily=Helvetica;fontSize=12;fontColor=default;resizable=1;" parent="_LmD8_kOQ_T7Rhvr41oa-88" vertex="1">
          <mxGeometry y="213" width="330" height="30" as="geometry" />
        </mxCell>
        <mxCell id="_LmD8_kOQ_T7Rhvr41oa-95" value="&lt;font style=&quot;font-size: 24px;&quot;&gt;MORE&lt;/font&gt;" style="rounded=1;whiteSpace=wrap;html=1;fillColor=#C8C8C8;movable=1;resizable=1;rotatable=1;deletable=1;editable=1;locked=0;connectable=1;" parent="_LmD8_kOQ_T7Rhvr41oa-119" vertex="1">
          <mxGeometry x="430" y="649" width="170" height="43" as="geometry" />
        </mxCell>
        <mxCell id="_LmD8_kOQ_T7Rhvr41oa-111" value="" style="group" parent="_LmD8_kOQ_T7Rhvr41oa-119" vertex="1" connectable="0">
          <mxGeometry x="1010" y="130" width="40" height="270" as="geometry" />
        </mxCell>
        <mxCell id="_LmD8_kOQ_T7Rhvr41oa-112" value="" style="rounded=1;whiteSpace=wrap;html=1;strokeColor=default;align=center;verticalAlign=middle;fontFamily=Helvetica;fontSize=12;fontColor=default;resizable=1;fillColor=light-dark(#EAEAEA,#EDEDED);arcSize=50;rotation=90;" parent="_LmD8_kOQ_T7Rhvr41oa-111" vertex="1">
          <mxGeometry x="-81.95666666666662" y="108.5181613103606" width="203.91333333333333" height="52.9636773792788" as="geometry" />
        </mxCell>
        <mxCell id="_LmD8_kOQ_T7Rhvr41oa-113" value="" style="ellipse;whiteSpace=wrap;html=1;aspect=fixed;rounded=0;strokeColor=default;align=center;verticalAlign=middle;fontFamily=Helvetica;fontSize=12;fontColor=default;resizable=1;fillColor=light-dark(#b3b3b3, #ededed);" parent="_LmD8_kOQ_T7Rhvr41oa-111" vertex="1">
          <mxGeometry x="3.3366666666667393" y="40.54810867361948" width="33.33333333333333" height="33.33333333333333" as="geometry" />
        </mxCell>
        <mxCell id="_LmD8_kOQ_T7Rhvr41oa-115" value="&lt;font style=&quot;font-size: 70px;&quot;&gt;Titel&lt;/font&gt;" style="text;html=1;align=center;verticalAlign=middle;whiteSpace=wrap;rounded=0;movable=1;resizable=1;rotatable=1;deletable=1;editable=1;locked=0;connectable=1;" parent="_LmD8_kOQ_T7Rhvr41oa-119" vertex="1">
          <mxGeometry x="481.75" width="80" height="40" as="geometry" />
        </mxCell>
        <mxCell id="_LmD8_kOQ_T7Rhvr41oa-116" value="" style="rounded=0;whiteSpace=wrap;html=1;fillColor=#A5A5A5;strokeColor=none;movable=1;resizable=1;rotatable=1;deletable=1;editable=1;locked=0;connectable=1;" parent="_LmD8_kOQ_T7Rhvr41oa-119" vertex="1">
          <mxGeometry x="380" y="60" width="290" height="10" as="geometry" />
        </mxCell>
        <mxCell id="_LmD8_kOQ_T7Rhvr41oa-117" value="UP&lt;div&gt;ARROW&lt;/div&gt;" style="rounded=1;whiteSpace=wrap;html=1;strokeColor=default;align=center;verticalAlign=middle;fontFamily=Helvetica;fontSize=12;fontColor=default;resizable=1;fillColor=light-dark(#9A9A9A,#EDEDED);" parent="_LmD8_kOQ_T7Rhvr41oa-119" vertex="1">
          <mxGeometry y="547" width="60" height="121" as="geometry" />
        </mxCell>
        <mxCell id="_LmD8_kOQ_T7Rhvr41oa-153" value="" style="group" parent="1" vertex="1" connectable="0">
          <mxGeometry x="-180" y="1982" width="2410" height="792" as="geometry" />
        </mxCell>
        <mxCell id="Yuj8acGgwzioiZGai9h4-132" value="" style="rounded=1;whiteSpace=wrap;html=1;fillColor=none;" parent="_LmD8_kOQ_T7Rhvr41oa-153" vertex="1">
          <mxGeometry x="152.62999999999988" y="160" width="850" height="220" as="geometry" />
        </mxCell>
        <mxCell id="Yuj8acGgwzioiZGai9h4-133" value="" style="rounded=1;whiteSpace=wrap;html=1;fillColor=none;" parent="_LmD8_kOQ_T7Rhvr41oa-153" vertex="1">
          <mxGeometry x="172.62999999999988" y="450" width="810" height="220" as="geometry" />
        </mxCell>
        <mxCell id="Yuj8acGgwzioiZGai9h4-125" value="Website 2" style="rounded=1;whiteSpace=wrap;html=1;gradientColor=none;fillColor=light-dark(#eaeaea, #EDEDED);" parent="_LmD8_kOQ_T7Rhvr41oa-153" vertex="1">
          <mxGeometry x="438.13" y="160" width="250" height="220" as="geometry" />
        </mxCell>
        <mxCell id="Yuj8acGgwzioiZGai9h4-126" value="Website 3" style="rounded=1;whiteSpace=wrap;html=1;gradientColor=none;fillColor=light-dark(#eaeaea, #EDEDED);" parent="_LmD8_kOQ_T7Rhvr41oa-153" vertex="1">
          <mxGeometry x="752.63" y="160" width="250" height="220" as="geometry" />
        </mxCell>
        <mxCell id="Yuj8acGgwzioiZGai9h4-128" value="Website 5" style="rounded=1;whiteSpace=wrap;html=1;gradientColor=none;fillColor=light-dark(#eaeaea, #EDEDED);" parent="_LmD8_kOQ_T7Rhvr41oa-153" vertex="1">
          <mxGeometry x="440.63" y="450" width="250" height="220" as="geometry" />
        </mxCell>
        <mxCell id="Yuj8acGgwzioiZGai9h4-129" value="Website 6" style="rounded=1;whiteSpace=wrap;html=1;gradientColor=none;fillColor=light-dark(#eaeaea, #EDEDED);" parent="_LmD8_kOQ_T7Rhvr41oa-153" vertex="1">
          <mxGeometry x="755.13" y="450" width="250" height="220" as="geometry" />
        </mxCell>
        <mxCell id="Yuj8acGgwzioiZGai9h4-130" value="Website 1" style="rounded=1;whiteSpace=wrap;html=1;gradientColor=none;fillColor=light-dark(#eaeaea, #EDEDED);" parent="_LmD8_kOQ_T7Rhvr41oa-153" vertex="1">
          <mxGeometry x="124.88" y="160" width="250" height="220" as="geometry" />
        </mxCell>
        <mxCell id="Yuj8acGgwzioiZGai9h4-131" value="Website 4" style="rounded=1;whiteSpace=wrap;html=1;gradientColor=none;fillColor=light-dark(#eaeaea, #EDEDED);" parent="_LmD8_kOQ_T7Rhvr41oa-153" vertex="1">
          <mxGeometry x="127.38" y="450" width="250" height="220" as="geometry" />
        </mxCell>
        <mxCell id="_LmD8_kOQ_T7Rhvr41oa-24" value="" style="group" parent="_LmD8_kOQ_T7Rhvr41oa-153" vertex="1" connectable="0">
          <mxGeometry width="1130" height="50" as="geometry" />
        </mxCell>
        <mxCell id="_LmD8_kOQ_T7Rhvr41oa-25" value="" style="verticalLabelPosition=bottom;verticalAlign=top;html=1;shape=mxgraph.basic.rect;fillColor2=none;strokeWidth=1;size=0;indent=0;fillColor=#CFCFCF;strokeColor=#23445d;" parent="_LmD8_kOQ_T7Rhvr41oa-24" vertex="1">
          <mxGeometry width="1130" height="50" as="geometry" />
        </mxCell>
        <mxCell id="_LmD8_kOQ_T7Rhvr41oa-26" value="" style="shape=or;whiteSpace=wrap;html=1;rotation=-90;" parent="_LmD8_kOQ_T7Rhvr41oa-24" vertex="1">
          <mxGeometry x="910" width="30" height="51" as="geometry" />
        </mxCell>
        <mxCell id="_LmD8_kOQ_T7Rhvr41oa-27" value="" style="shape=or;whiteSpace=wrap;html=1;rotation=-90;" parent="_LmD8_kOQ_T7Rhvr41oa-24" vertex="1">
          <mxGeometry x="977" width="30" height="51" as="geometry" />
        </mxCell>
        <mxCell id="_LmD8_kOQ_T7Rhvr41oa-28" value="" style="shape=or;whiteSpace=wrap;html=1;rotation=-90;" parent="_LmD8_kOQ_T7Rhvr41oa-24" vertex="1">
          <mxGeometry x="1040" width="30" height="51" as="geometry" />
        </mxCell>
        <mxCell id="_LmD8_kOQ_T7Rhvr41oa-29" value="ICON" style="text;html=1;align=center;verticalAlign=middle;whiteSpace=wrap;rounded=0;" parent="_LmD8_kOQ_T7Rhvr41oa-24" vertex="1">
          <mxGeometry x="895" y="13.5" width="60" height="30" as="geometry" />
        </mxCell>
        <mxCell id="_LmD8_kOQ_T7Rhvr41oa-30" value="ICON" style="text;html=1;align=center;verticalAlign=middle;whiteSpace=wrap;rounded=0;" parent="_LmD8_kOQ_T7Rhvr41oa-24" vertex="1">
          <mxGeometry x="962" y="13.5" width="60" height="30" as="geometry" />
        </mxCell>
        <mxCell id="_LmD8_kOQ_T7Rhvr41oa-31" value="ICON" style="text;html=1;align=center;verticalAlign=middle;whiteSpace=wrap;rounded=0;" parent="_LmD8_kOQ_T7Rhvr41oa-24" vertex="1">
          <mxGeometry x="1025" y="13.5" width="60" height="30" as="geometry" />
        </mxCell>
        <mxCell id="_LmD8_kOQ_T7Rhvr41oa-32" value="" style="sketch=0;pointerEvents=1;shadow=0;dashed=0;html=1;strokeColor=none;fillColor=#505050;labelPosition=center;verticalLabelPosition=bottom;verticalAlign=top;outlineConnect=0;align=center;shape=mxgraph.office.concepts.home;" parent="_LmD8_kOQ_T7Rhvr41oa-24" vertex="1">
          <mxGeometry x="20" y="11.5" width="30" height="23.5" as="geometry" />
        </mxCell>
        <mxCell id="_LmD8_kOQ_T7Rhvr41oa-33" value="" style="rounded=1;whiteSpace=wrap;html=1;arcSize=50;" parent="_LmD8_kOQ_T7Rhvr41oa-24" vertex="1">
          <mxGeometry x="390" y="10" width="366.5" height="30" as="geometry" />
        </mxCell>
        <mxCell id="_LmD8_kOQ_T7Rhvr41oa-186" value="" style="ellipse;whiteSpace=wrap;html=1;aspect=fixed;rounded=0;strokeColor=default;align=center;verticalAlign=middle;fontFamily=Helvetica;fontSize=12;fontColor=default;resizable=1;fillColor=light-dark(#FF92E0,#EDEDED);" parent="_LmD8_kOQ_T7Rhvr41oa-24" vertex="1">
          <mxGeometry x="340" y="5" width="35" height="35" as="geometry" />
        </mxCell>
        <mxCell id="_LmD8_kOQ_T7Rhvr41oa-98" value="" style="group" parent="_LmD8_kOQ_T7Rhvr41oa-153" vertex="1" connectable="0">
          <mxGeometry x="1280" width="1130" height="50" as="geometry" />
        </mxCell>
        <mxCell id="_LmD8_kOQ_T7Rhvr41oa-99" value="" style="verticalLabelPosition=bottom;verticalAlign=top;html=1;shape=mxgraph.basic.rect;fillColor2=none;strokeWidth=1;size=0;indent=0;fillColor=#CFCFCF;strokeColor=#23445d;" parent="_LmD8_kOQ_T7Rhvr41oa-98" vertex="1">
          <mxGeometry width="1130" height="50" as="geometry" />
        </mxCell>
        <mxCell id="_LmD8_kOQ_T7Rhvr41oa-100" value="" style="shape=or;whiteSpace=wrap;html=1;rotation=-90;" parent="_LmD8_kOQ_T7Rhvr41oa-98" vertex="1">
          <mxGeometry x="910" width="30" height="51" as="geometry" />
        </mxCell>
        <mxCell id="_LmD8_kOQ_T7Rhvr41oa-101" value="" style="shape=or;whiteSpace=wrap;html=1;rotation=-90;" parent="_LmD8_kOQ_T7Rhvr41oa-98" vertex="1">
          <mxGeometry x="977" width="30" height="51" as="geometry" />
        </mxCell>
        <mxCell id="_LmD8_kOQ_T7Rhvr41oa-102" value="" style="shape=or;whiteSpace=wrap;html=1;rotation=-90;" parent="_LmD8_kOQ_T7Rhvr41oa-98" vertex="1">
          <mxGeometry x="1040" width="30" height="51" as="geometry" />
        </mxCell>
        <mxCell id="_LmD8_kOQ_T7Rhvr41oa-103" value="ICON" style="text;html=1;align=center;verticalAlign=middle;whiteSpace=wrap;rounded=0;" parent="_LmD8_kOQ_T7Rhvr41oa-98" vertex="1">
          <mxGeometry x="895" y="13.5" width="60" height="30" as="geometry" />
        </mxCell>
        <mxCell id="_LmD8_kOQ_T7Rhvr41oa-104" value="ICON" style="text;html=1;align=center;verticalAlign=middle;whiteSpace=wrap;rounded=0;" parent="_LmD8_kOQ_T7Rhvr41oa-98" vertex="1">
          <mxGeometry x="962" y="13.5" width="60" height="30" as="geometry" />
        </mxCell>
        <mxCell id="_LmD8_kOQ_T7Rhvr41oa-105" value="ICON" style="text;html=1;align=center;verticalAlign=middle;whiteSpace=wrap;rounded=0;" parent="_LmD8_kOQ_T7Rhvr41oa-98" vertex="1">
          <mxGeometry x="1025" y="13.5" width="60" height="30" as="geometry" />
        </mxCell>
        <mxCell id="_LmD8_kOQ_T7Rhvr41oa-106" value="" style="sketch=0;pointerEvents=1;shadow=0;dashed=0;html=1;strokeColor=none;fillColor=#505050;labelPosition=center;verticalLabelPosition=bottom;verticalAlign=top;outlineConnect=0;align=center;shape=mxgraph.office.concepts.home;" parent="_LmD8_kOQ_T7Rhvr41oa-98" vertex="1">
          <mxGeometry x="20" y="11.5" width="30" height="23.5" as="geometry" />
        </mxCell>
        <mxCell id="_LmD8_kOQ_T7Rhvr41oa-107" value="" style="rounded=1;whiteSpace=wrap;html=1;arcSize=50;" parent="_LmD8_kOQ_T7Rhvr41oa-98" vertex="1">
          <mxGeometry x="390" y="10" width="366.5" height="30" as="geometry" />
        </mxCell>
        <mxCell id="_LmD8_kOQ_T7Rhvr41oa-188" value="" style="ellipse;whiteSpace=wrap;html=1;aspect=fixed;rounded=0;strokeColor=default;align=center;verticalAlign=middle;fontFamily=Helvetica;fontSize=12;fontColor=default;resizable=1;fillColor=light-dark(#FF92E0,#EDEDED);" parent="_LmD8_kOQ_T7Rhvr41oa-98" vertex="1">
          <mxGeometry x="340" y="5.75" width="35" height="35" as="geometry" />
        </mxCell>
        <mxCell id="_LmD8_kOQ_T7Rhvr41oa-120" value="" style="group" parent="_LmD8_kOQ_T7Rhvr41oa-153" vertex="1" connectable="0">
          <mxGeometry x="1330" y="100" width="1050" height="692" as="geometry" />
        </mxCell>
        <mxCell id="_LmD8_kOQ_T7Rhvr41oa-121" value="" style="group" parent="_LmD8_kOQ_T7Rhvr41oa-120" vertex="1" connectable="0">
          <mxGeometry x="460" y="110" width="330" height="243" as="geometry" />
        </mxCell>
        <mxCell id="_LmD8_kOQ_T7Rhvr41oa-122" value="" style="ellipse;whiteSpace=wrap;html=1;aspect=fixed;" parent="_LmD8_kOQ_T7Rhvr41oa-121" vertex="1">
          <mxGeometry x="60" width="209.99999999999997" height="209.99999999999997" as="geometry" />
        </mxCell>
        <mxCell id="_LmD8_kOQ_T7Rhvr41oa-123" value="" style="ellipse;whiteSpace=wrap;html=1;strokeColor=none;" parent="_LmD8_kOQ_T7Rhvr41oa-121" vertex="1">
          <mxGeometry x="102.33870967741936" y="172.5" width="125.32258064516128" height="57.5" as="geometry" />
        </mxCell>
        <mxCell id="_LmD8_kOQ_T7Rhvr41oa-124" value="Photo Sub Char" style="ellipse;whiteSpace=wrap;html=1;aspect=fixed;fillColor=light-dark(#b0b0b0, #ededed);" parent="_LmD8_kOQ_T7Rhvr41oa-121" vertex="1">
          <mxGeometry x="89.63709677419355" y="26.953125" width="150.7258064516129" height="150.7258064516129" as="geometry" />
        </mxCell>
        <mxCell id="_LmD8_kOQ_T7Rhvr41oa-125" value="&lt;span style=&quot;font-size: 25px;&quot;&gt;Title&lt;/span&gt;" style="text;html=1;align=center;verticalAlign=middle;whiteSpace=wrap;rounded=0;" parent="_LmD8_kOQ_T7Rhvr41oa-121" vertex="1">
          <mxGeometry x="135" y="190" width="60" height="30" as="geometry" />
        </mxCell>
        <mxCell id="_LmD8_kOQ_T7Rhvr41oa-126" value="&lt;font style=&quot;font-size: 17px;&quot;&gt;mini Sentence&lt;/font&gt;" style="text;html=1;align=center;verticalAlign=middle;whiteSpace=wrap;rounded=0;fontFamily=Helvetica;fontSize=12;fontColor=default;resizable=1;" parent="_LmD8_kOQ_T7Rhvr41oa-121" vertex="1">
          <mxGeometry y="213" width="330" height="30" as="geometry" />
        </mxCell>
        <mxCell id="_LmD8_kOQ_T7Rhvr41oa-127" value="" style="group" parent="_LmD8_kOQ_T7Rhvr41oa-120" vertex="1" connectable="0">
          <mxGeometry x="260" y="320" width="330" height="243" as="geometry" />
        </mxCell>
        <mxCell id="_LmD8_kOQ_T7Rhvr41oa-128" value="" style="ellipse;whiteSpace=wrap;html=1;aspect=fixed;" parent="_LmD8_kOQ_T7Rhvr41oa-127" vertex="1">
          <mxGeometry x="60" width="209.99999999999997" height="209.99999999999997" as="geometry" />
        </mxCell>
        <mxCell id="_LmD8_kOQ_T7Rhvr41oa-129" value="" style="ellipse;whiteSpace=wrap;html=1;strokeColor=none;" parent="_LmD8_kOQ_T7Rhvr41oa-127" vertex="1">
          <mxGeometry x="102.33870967741936" y="172.5" width="125.32258064516128" height="57.5" as="geometry" />
        </mxCell>
        <mxCell id="_LmD8_kOQ_T7Rhvr41oa-130" value="Photo Sub Char" style="ellipse;whiteSpace=wrap;html=1;aspect=fixed;fillColor=light-dark(#b0b0b0, #ededed);" parent="_LmD8_kOQ_T7Rhvr41oa-127" vertex="1">
          <mxGeometry x="89.63709677419355" y="26.953125" width="150.7258064516129" height="150.7258064516129" as="geometry" />
        </mxCell>
        <mxCell id="_LmD8_kOQ_T7Rhvr41oa-131" value="&lt;span style=&quot;font-size: 25px;&quot;&gt;Title&lt;/span&gt;" style="text;html=1;align=center;verticalAlign=middle;whiteSpace=wrap;rounded=0;" parent="_LmD8_kOQ_T7Rhvr41oa-127" vertex="1">
          <mxGeometry x="135" y="190" width="60" height="30" as="geometry" />
        </mxCell>
        <mxCell id="_LmD8_kOQ_T7Rhvr41oa-132" value="&lt;font style=&quot;font-size: 17px;&quot;&gt;mini Sentence&lt;/font&gt;" style="text;html=1;align=center;verticalAlign=middle;whiteSpace=wrap;rounded=0;fontFamily=Helvetica;fontSize=12;fontColor=default;resizable=1;" parent="_LmD8_kOQ_T7Rhvr41oa-127" vertex="1">
          <mxGeometry y="213" width="330" height="30" as="geometry" />
        </mxCell>
        <mxCell id="_LmD8_kOQ_T7Rhvr41oa-133" value="" style="group" parent="_LmD8_kOQ_T7Rhvr41oa-120" vertex="1" connectable="0">
          <mxGeometry x="40" y="100" width="330" height="243" as="geometry" />
        </mxCell>
        <mxCell id="_LmD8_kOQ_T7Rhvr41oa-134" value="" style="ellipse;whiteSpace=wrap;html=1;aspect=fixed;" parent="_LmD8_kOQ_T7Rhvr41oa-133" vertex="1">
          <mxGeometry x="60" width="209.99999999999997" height="209.99999999999997" as="geometry" />
        </mxCell>
        <mxCell id="_LmD8_kOQ_T7Rhvr41oa-135" value="" style="ellipse;whiteSpace=wrap;html=1;strokeColor=none;" parent="_LmD8_kOQ_T7Rhvr41oa-133" vertex="1">
          <mxGeometry x="102.33870967741936" y="172.5" width="125.32258064516128" height="57.5" as="geometry" />
        </mxCell>
        <mxCell id="_LmD8_kOQ_T7Rhvr41oa-136" value="Photo Sub Char" style="ellipse;whiteSpace=wrap;html=1;aspect=fixed;fillColor=light-dark(#b0b0b0, #ededed);" parent="_LmD8_kOQ_T7Rhvr41oa-133" vertex="1">
          <mxGeometry x="89.63709677419355" y="26.953125" width="150.7258064516129" height="150.7258064516129" as="geometry" />
        </mxCell>
        <mxCell id="_LmD8_kOQ_T7Rhvr41oa-137" value="&lt;span style=&quot;font-size: 25px;&quot;&gt;Title&lt;/span&gt;" style="text;html=1;align=center;verticalAlign=middle;whiteSpace=wrap;rounded=0;" parent="_LmD8_kOQ_T7Rhvr41oa-133" vertex="1">
          <mxGeometry x="135" y="190" width="60" height="30" as="geometry" />
        </mxCell>
        <mxCell id="_LmD8_kOQ_T7Rhvr41oa-138" value="&lt;font style=&quot;font-size: 17px;&quot;&gt;mini Sentence&lt;/font&gt;" style="text;html=1;align=center;verticalAlign=middle;whiteSpace=wrap;rounded=0;fontFamily=Helvetica;fontSize=12;fontColor=default;resizable=1;" parent="_LmD8_kOQ_T7Rhvr41oa-133" vertex="1">
          <mxGeometry y="213" width="330" height="30" as="geometry" />
        </mxCell>
        <mxCell id="_LmD8_kOQ_T7Rhvr41oa-139" value="&lt;font style=&quot;font-size: 24px;&quot;&gt;MORE&lt;/font&gt;" style="rounded=1;whiteSpace=wrap;html=1;fillColor=#C8C8C8;movable=1;resizable=1;rotatable=1;deletable=1;editable=1;locked=0;connectable=1;" parent="_LmD8_kOQ_T7Rhvr41oa-120" vertex="1">
          <mxGeometry x="430" y="649" width="170" height="43" as="geometry" />
        </mxCell>
        <mxCell id="_LmD8_kOQ_T7Rhvr41oa-140" value="" style="group" parent="_LmD8_kOQ_T7Rhvr41oa-120" vertex="1" connectable="0">
          <mxGeometry x="1010" y="130" width="40" height="270" as="geometry" />
        </mxCell>
        <mxCell id="_LmD8_kOQ_T7Rhvr41oa-141" value="" style="rounded=1;whiteSpace=wrap;html=1;strokeColor=default;align=center;verticalAlign=middle;fontFamily=Helvetica;fontSize=12;fontColor=default;resizable=1;fillColor=light-dark(#EAEAEA,#EDEDED);arcSize=50;rotation=90;" parent="_LmD8_kOQ_T7Rhvr41oa-140" vertex="1">
          <mxGeometry x="-81.95666666666662" y="108.5181613103606" width="203.91333333333333" height="52.9636773792788" as="geometry" />
        </mxCell>
        <mxCell id="_LmD8_kOQ_T7Rhvr41oa-142" value="" style="ellipse;whiteSpace=wrap;html=1;aspect=fixed;rounded=0;strokeColor=default;align=center;verticalAlign=middle;fontFamily=Helvetica;fontSize=12;fontColor=default;resizable=1;fillColor=light-dark(#b3b3b3, #ededed);" parent="_LmD8_kOQ_T7Rhvr41oa-140" vertex="1">
          <mxGeometry x="3.3366666666667393" y="40.54810867361948" width="33.33333333333333" height="33.33333333333333" as="geometry" />
        </mxCell>
        <mxCell id="_LmD8_kOQ_T7Rhvr41oa-143" value="&lt;font style=&quot;font-size: 70px;&quot;&gt;Titel&lt;/font&gt;" style="text;html=1;align=center;verticalAlign=middle;whiteSpace=wrap;rounded=0;movable=1;resizable=1;rotatable=1;deletable=1;editable=1;locked=0;connectable=1;" parent="_LmD8_kOQ_T7Rhvr41oa-120" vertex="1">
          <mxGeometry x="481.75" width="80" height="40" as="geometry" />
        </mxCell>
        <mxCell id="_LmD8_kOQ_T7Rhvr41oa-144" value="" style="rounded=0;whiteSpace=wrap;html=1;fillColor=#A5A5A5;strokeColor=none;movable=1;resizable=1;rotatable=1;deletable=1;editable=1;locked=0;connectable=1;" parent="_LmD8_kOQ_T7Rhvr41oa-120" vertex="1">
          <mxGeometry x="380" y="60" width="290" height="10" as="geometry" />
        </mxCell>
        <mxCell id="_LmD8_kOQ_T7Rhvr41oa-145" value="UP&lt;div&gt;ARROW&lt;/div&gt;" style="rounded=1;whiteSpace=wrap;html=1;strokeColor=default;align=center;verticalAlign=middle;fontFamily=Helvetica;fontSize=12;fontColor=default;resizable=1;fillColor=light-dark(#9A9A9A,#EDEDED);" parent="_LmD8_kOQ_T7Rhvr41oa-120" vertex="1">
          <mxGeometry y="547" width="60" height="121" as="geometry" />
        </mxCell>
        <mxCell id="_LmD8_kOQ_T7Rhvr41oa-146" value="" style="group" parent="_LmD8_kOQ_T7Rhvr41oa-153" vertex="1" connectable="0">
          <mxGeometry x="2004.13" y="410" width="330" height="243" as="geometry" />
        </mxCell>
        <mxCell id="_LmD8_kOQ_T7Rhvr41oa-147" value="" style="ellipse;whiteSpace=wrap;html=1;aspect=fixed;" parent="_LmD8_kOQ_T7Rhvr41oa-146" vertex="1">
          <mxGeometry x="60" width="209.99999999999997" height="209.99999999999997" as="geometry" />
        </mxCell>
        <mxCell id="_LmD8_kOQ_T7Rhvr41oa-148" value="" style="ellipse;whiteSpace=wrap;html=1;strokeColor=none;" parent="_LmD8_kOQ_T7Rhvr41oa-146" vertex="1">
          <mxGeometry x="102.33870967741936" y="172.5" width="125.32258064516128" height="57.5" as="geometry" />
        </mxCell>
        <mxCell id="_LmD8_kOQ_T7Rhvr41oa-149" value="Photo Sub Char" style="ellipse;whiteSpace=wrap;html=1;aspect=fixed;fillColor=light-dark(#b0b0b0, #ededed);" parent="_LmD8_kOQ_T7Rhvr41oa-146" vertex="1">
          <mxGeometry x="89.63709677419355" y="26.953125" width="150.7258064516129" height="150.7258064516129" as="geometry" />
        </mxCell>
        <mxCell id="_LmD8_kOQ_T7Rhvr41oa-150" value="&lt;span style=&quot;font-size: 25px;&quot;&gt;Title&lt;/span&gt;" style="text;html=1;align=center;verticalAlign=middle;whiteSpace=wrap;rounded=0;" parent="_LmD8_kOQ_T7Rhvr41oa-146" vertex="1">
          <mxGeometry x="135" y="190" width="60" height="30" as="geometry" />
        </mxCell>
        <mxCell id="_LmD8_kOQ_T7Rhvr41oa-151" value="&lt;font style=&quot;font-size: 17px;&quot;&gt;mini Sentence&lt;/font&gt;" style="text;html=1;align=center;verticalAlign=middle;whiteSpace=wrap;rounded=0;fontFamily=Helvetica;fontSize=12;fontColor=default;resizable=1;" parent="_LmD8_kOQ_T7Rhvr41oa-146" vertex="1">
          <mxGeometry y="213" width="330" height="30" as="geometry" />
        </mxCell>
        <mxCell id="_LmD8_kOQ_T7Rhvr41oa-154" value="" style="group" parent="1" vertex="1" connectable="0">
          <mxGeometry x="2902.94" y="1840" width="1050" height="692" as="geometry" />
        </mxCell>
        <mxCell id="_LmD8_kOQ_T7Rhvr41oa-155" value="" style="group" parent="_LmD8_kOQ_T7Rhvr41oa-154" vertex="1" connectable="0">
          <mxGeometry x="350" y="120" width="330" height="243" as="geometry" />
        </mxCell>
        <mxCell id="_LmD8_kOQ_T7Rhvr41oa-156" value="" style="ellipse;whiteSpace=wrap;html=1;aspect=fixed;" parent="_LmD8_kOQ_T7Rhvr41oa-155" vertex="1">
          <mxGeometry x="60" width="209.99999999999997" height="209.99999999999997" as="geometry" />
        </mxCell>
        <mxCell id="_LmD8_kOQ_T7Rhvr41oa-157" value="" style="ellipse;whiteSpace=wrap;html=1;strokeColor=none;" parent="_LmD8_kOQ_T7Rhvr41oa-155" vertex="1">
          <mxGeometry x="102.33870967741936" y="172.5" width="125.32258064516128" height="57.5" as="geometry" />
        </mxCell>
        <mxCell id="_LmD8_kOQ_T7Rhvr41oa-158" value="Photo Main Char" style="ellipse;whiteSpace=wrap;html=1;aspect=fixed;fillColor=light-dark(#b0b0b0, #ededed);" parent="_LmD8_kOQ_T7Rhvr41oa-155" vertex="1">
          <mxGeometry x="89.63709677419355" y="26.953125" width="150.7258064516129" height="150.7258064516129" as="geometry" />
        </mxCell>
        <mxCell id="_LmD8_kOQ_T7Rhvr41oa-159" value="&lt;span style=&quot;font-size: 25px;&quot;&gt;Title&lt;/span&gt;" style="text;html=1;align=center;verticalAlign=middle;whiteSpace=wrap;rounded=0;" parent="_LmD8_kOQ_T7Rhvr41oa-155" vertex="1">
          <mxGeometry x="135" y="190" width="60" height="30" as="geometry" />
        </mxCell>
        <mxCell id="_LmD8_kOQ_T7Rhvr41oa-160" value="&lt;font style=&quot;font-size: 17px;&quot;&gt;mini Sentence&lt;/font&gt;" style="text;html=1;align=center;verticalAlign=middle;whiteSpace=wrap;rounded=0;fontFamily=Helvetica;fontSize=12;fontColor=default;resizable=1;" parent="_LmD8_kOQ_T7Rhvr41oa-155" vertex="1">
          <mxGeometry y="213" width="330" height="30" as="geometry" />
        </mxCell>
        <mxCell id="_LmD8_kOQ_T7Rhvr41oa-161" value="" style="group" parent="_LmD8_kOQ_T7Rhvr41oa-154" vertex="1" connectable="0">
          <mxGeometry x="610" y="339" width="330" height="243" as="geometry" />
        </mxCell>
        <mxCell id="_LmD8_kOQ_T7Rhvr41oa-162" value="" style="ellipse;whiteSpace=wrap;html=1;aspect=fixed;" parent="_LmD8_kOQ_T7Rhvr41oa-161" vertex="1">
          <mxGeometry x="60" width="209.99999999999997" height="209.99999999999997" as="geometry" />
        </mxCell>
        <mxCell id="_LmD8_kOQ_T7Rhvr41oa-163" value="" style="ellipse;whiteSpace=wrap;html=1;strokeColor=none;" parent="_LmD8_kOQ_T7Rhvr41oa-161" vertex="1">
          <mxGeometry x="102.33870967741936" y="172.5" width="125.32258064516128" height="57.5" as="geometry" />
        </mxCell>
        <mxCell id="_LmD8_kOQ_T7Rhvr41oa-164" value="Photo Main Char" style="ellipse;whiteSpace=wrap;html=1;aspect=fixed;fillColor=light-dark(#b0b0b0, #ededed);" parent="_LmD8_kOQ_T7Rhvr41oa-161" vertex="1">
          <mxGeometry x="89.63709677419355" y="26.953125" width="150.7258064516129" height="150.7258064516129" as="geometry" />
        </mxCell>
        <mxCell id="_LmD8_kOQ_T7Rhvr41oa-165" value="&lt;span style=&quot;font-size: 25px;&quot;&gt;Title&lt;/span&gt;" style="text;html=1;align=center;verticalAlign=middle;whiteSpace=wrap;rounded=0;" parent="_LmD8_kOQ_T7Rhvr41oa-161" vertex="1">
          <mxGeometry x="135" y="190" width="60" height="30" as="geometry" />
        </mxCell>
        <mxCell id="_LmD8_kOQ_T7Rhvr41oa-166" value="&lt;font style=&quot;font-size: 17px;&quot;&gt;mini Sentence&lt;/font&gt;" style="text;html=1;align=center;verticalAlign=middle;whiteSpace=wrap;rounded=0;fontFamily=Helvetica;fontSize=12;fontColor=default;resizable=1;" parent="_LmD8_kOQ_T7Rhvr41oa-161" vertex="1">
          <mxGeometry y="213" width="330" height="30" as="geometry" />
        </mxCell>
        <mxCell id="_LmD8_kOQ_T7Rhvr41oa-167" value="" style="group" parent="_LmD8_kOQ_T7Rhvr41oa-154" vertex="1" connectable="0">
          <mxGeometry x="91" y="332" width="330" height="243" as="geometry" />
        </mxCell>
        <mxCell id="_LmD8_kOQ_T7Rhvr41oa-168" value="" style="ellipse;whiteSpace=wrap;html=1;aspect=fixed;" parent="_LmD8_kOQ_T7Rhvr41oa-167" vertex="1">
          <mxGeometry x="60" width="209.99999999999997" height="209.99999999999997" as="geometry" />
        </mxCell>
        <mxCell id="_LmD8_kOQ_T7Rhvr41oa-169" value="" style="ellipse;whiteSpace=wrap;html=1;strokeColor=none;" parent="_LmD8_kOQ_T7Rhvr41oa-167" vertex="1">
          <mxGeometry x="102.33870967741936" y="172.5" width="125.32258064516128" height="57.5" as="geometry" />
        </mxCell>
        <mxCell id="_LmD8_kOQ_T7Rhvr41oa-170" value="Photo Main Char" style="ellipse;whiteSpace=wrap;html=1;aspect=fixed;fillColor=light-dark(#b0b0b0, #ededed);" parent="_LmD8_kOQ_T7Rhvr41oa-167" vertex="1">
          <mxGeometry x="89.63709677419355" y="26.953125" width="150.7258064516129" height="150.7258064516129" as="geometry" />
        </mxCell>
        <mxCell id="_LmD8_kOQ_T7Rhvr41oa-171" value="&lt;span style=&quot;font-size: 25px;&quot;&gt;Title&lt;/span&gt;" style="text;html=1;align=center;verticalAlign=middle;whiteSpace=wrap;rounded=0;" parent="_LmD8_kOQ_T7Rhvr41oa-167" vertex="1">
          <mxGeometry x="135" y="190" width="60" height="30" as="geometry" />
        </mxCell>
        <mxCell id="_LmD8_kOQ_T7Rhvr41oa-172" value="&lt;font style=&quot;font-size: 17px;&quot;&gt;mini Sentence&lt;/font&gt;" style="text;html=1;align=center;verticalAlign=middle;whiteSpace=wrap;rounded=0;fontFamily=Helvetica;fontSize=12;fontColor=default;resizable=1;" parent="_LmD8_kOQ_T7Rhvr41oa-167" vertex="1">
          <mxGeometry y="213" width="330" height="30" as="geometry" />
        </mxCell>
        <mxCell id="_LmD8_kOQ_T7Rhvr41oa-173" value="&lt;font style=&quot;font-size: 24px;&quot;&gt;MORE&lt;/font&gt;" style="rounded=1;whiteSpace=wrap;html=1;fillColor=#C8C8C8;movable=1;resizable=1;rotatable=1;deletable=1;editable=1;locked=0;connectable=1;" parent="_LmD8_kOQ_T7Rhvr41oa-154" vertex="1">
          <mxGeometry x="430" y="649" width="170" height="43" as="geometry" />
        </mxCell>
        <mxCell id="_LmD8_kOQ_T7Rhvr41oa-174" value="" style="group" parent="_LmD8_kOQ_T7Rhvr41oa-154" vertex="1" connectable="0">
          <mxGeometry x="1010" y="130" width="40" height="270" as="geometry" />
        </mxCell>
        <mxCell id="_LmD8_kOQ_T7Rhvr41oa-175" value="" style="rounded=1;whiteSpace=wrap;html=1;strokeColor=default;align=center;verticalAlign=middle;fontFamily=Helvetica;fontSize=12;fontColor=default;resizable=1;fillColor=light-dark(#EAEAEA,#EDEDED);arcSize=50;rotation=90;" parent="_LmD8_kOQ_T7Rhvr41oa-174" vertex="1">
          <mxGeometry x="-81.95666666666662" y="108.5181613103606" width="203.91333333333333" height="52.9636773792788" as="geometry" />
        </mxCell>
        <mxCell id="_LmD8_kOQ_T7Rhvr41oa-176" value="" style="ellipse;whiteSpace=wrap;html=1;aspect=fixed;rounded=0;strokeColor=default;align=center;verticalAlign=middle;fontFamily=Helvetica;fontSize=12;fontColor=default;resizable=1;fillColor=light-dark(#b3b3b3, #ededed);" parent="_LmD8_kOQ_T7Rhvr41oa-174" vertex="1">
          <mxGeometry x="3.3366666666667393" y="40.54810867361948" width="33.33333333333333" height="33.33333333333333" as="geometry" />
        </mxCell>
        <mxCell id="_LmD8_kOQ_T7Rhvr41oa-177" value="&lt;font style=&quot;font-size: 70px;&quot;&gt;Titel&lt;/font&gt;" style="text;html=1;align=center;verticalAlign=middle;whiteSpace=wrap;rounded=0;movable=1;resizable=1;rotatable=1;deletable=1;editable=1;locked=0;connectable=1;" parent="_LmD8_kOQ_T7Rhvr41oa-154" vertex="1">
          <mxGeometry x="481.75" width="80" height="40" as="geometry" />
        </mxCell>
        <mxCell id="_LmD8_kOQ_T7Rhvr41oa-178" value="" style="rounded=0;whiteSpace=wrap;html=1;fillColor=#A5A5A5;strokeColor=none;movable=1;resizable=1;rotatable=1;deletable=1;editable=1;locked=0;connectable=1;" parent="_LmD8_kOQ_T7Rhvr41oa-154" vertex="1">
          <mxGeometry x="380" y="60" width="290" height="10" as="geometry" />
        </mxCell>
        <mxCell id="_LmD8_kOQ_T7Rhvr41oa-179" value="UP&lt;div&gt;ARROW&lt;/div&gt;" style="rounded=1;whiteSpace=wrap;html=1;strokeColor=default;align=center;verticalAlign=middle;fontFamily=Helvetica;fontSize=12;fontColor=default;resizable=1;fillColor=light-dark(#9A9A9A,#EDEDED);" parent="_LmD8_kOQ_T7Rhvr41oa-154" vertex="1">
          <mxGeometry y="547" width="60" height="121" as="geometry" />
        </mxCell>
        <mxCell id="_LmD8_kOQ_T7Rhvr41oa-180" value="UP&lt;div&gt;ARROW&lt;/div&gt;" style="rounded=1;whiteSpace=wrap;html=1;strokeColor=default;align=center;verticalAlign=middle;fontFamily=Helvetica;fontSize=12;fontColor=default;resizable=1;fillColor=light-dark(#9A9A9A,#EDEDED);" parent="1" vertex="1">
          <mxGeometry x="-147" y="2610" width="60" height="121" as="geometry" />
        </mxCell>
        <mxCell id="_LmD8_kOQ_T7Rhvr41oa-183" value="&lt;span style=&quot;font-size: 50px;&quot;&gt;Welcome Page&lt;/span&gt;" style="text;html=1;align=center;verticalAlign=middle;whiteSpace=wrap;rounded=0;fontFamily=Helvetica;fontSize=12;fontColor=default;resizable=1;" parent="1" vertex="1">
          <mxGeometry x="128" y="1060" width="504" height="30" as="geometry" />
        </mxCell>
        <mxCell id="_LmD8_kOQ_T7Rhvr41oa-184" value="&lt;span style=&quot;font-size: 50px;&quot;&gt;Characters Page &lt;/span&gt;&lt;font style=&quot;font-size: 32px;&quot;&gt;(Catalog alike)&lt;/font&gt;" style="text;html=1;align=center;verticalAlign=middle;whiteSpace=wrap;rounded=0;fontFamily=Helvetica;fontSize=12;fontColor=default;resizable=1;" parent="1" vertex="1">
          <mxGeometry x="1423" y="1040" width="504" height="30" as="geometry" />
        </mxCell>
      </root>
    </mxGraphModel>
  </diagram>
</mxfile>
